<?xml version="1.0" encoding="UTF-8" standalone="no"?>
<svg
   viewBox="0 0 640 512"
   fill="#d1d1d1"
   version="1.1"
   id="svg1"
   sodipodi:docname="drum-solid.svg"
   inkscape:version="1.3 (0e150ed6c4, 2023-07-21)"
   xmlns:inkscape="http://www.inkscape.org/namespaces/inkscape"
   xmlns:sodipodi="http://sodipodi.sourceforge.net/DTD/sodipodi-0.dtd"
   xmlns="http://www.w3.org/2000/svg"
   xmlns:svg="http://www.w3.org/2000/svg">
  <defs
     id="defs1" />
  <sodipodi:namedview
     id="namedview1"
     pagecolor="#ffffff"
     bordercolor="#000000"
     borderopacity="0.25"
     inkscape:showpageshadow="2"
     inkscape:pageopacity="0.0"
     inkscape:pagecheckerboard="0"
     inkscape:deskcolor="#d1d1d1"
     showgrid="false"
     inkscape:zoom="2.2910156"
     inkscape:cx="320.16369"
     inkscape:cy="256"
     inkscape:window-width="2560"
     inkscape:window-height="1369"
     inkscape:window-x="1912"
     inkscape:window-y="-8"
     inkscape:window-maximized="1"
     inkscape:current-layer="svg1" />
  <!--! Font Awesome Pro 6.4.2 by @fontawesome - https://fontawesome.com License - https://fontawesome.com/license (Commercial License) Copyright 2023 Fonticons, Inc. -->
  <path
     d="M 600.09121,50.737431 C 612.7721,42.397752 616.3136,25.489902 607.97392,12.809019 599.63424,0.12813577 582.72639,-3.4133721 570.04551,4.9263078 L 450.43394,83.182219 c -39.29931,-6.626053 -83.62529,-9.710592 -130.46458,-9.710592 -161.53845,0 -292.460007,36.557503 -292.460007,127.951263 v 182.7875 c 0,35.75781 31.30236,67.1744 82.254377,89.9086 V 356.79226 c 0,-15.19421 12.22392,-27.41812 27.41813,-27.41812 15.1942,0 27.41812,12.22391 27.41812,27.41812 v 136.40518 c 37.69993,10.16755 81.2262,16.56511 127.95125,18.39299 V 393.34976 c 0,-15.19421 12.22392,-27.41812 27.41813,-27.41812 15.19421,0 27.41812,12.22391 27.41812,27.41812 v 118.24067 c 46.72506,-1.82788 90.25134,-8.22544 127.95125,-18.39299 V 356.79226 c 0,-15.19421 12.22392,-27.41812 27.41814,-27.41812 15.1942,0 27.41812,12.22391 27.41812,27.41812 v 117.32673 c 50.95202,-22.7342 82.25437,-54.15079 82.25437,-89.9086 v -182.7875 c 0,-46.95354 -34.50114,-79.39832 -90.02284,-99.84768 L 599.97696,50.737431 Z M 378.68984,130.13576 304.88939,178.4602 c -12.68088,8.33969 -16.22239,25.24753 -7.88271,37.92841 8.33968,12.68089 25.24752,16.22239 37.92841,7.88271 l 126.92307,-83.16831 c 16.7936,3.65575 31.87357,7.99695 45.01143,13.13785 44.32596,17.25057 50.72353,35.07235 50.72353,47.18203 0,0.91393 -3.08455,19.64965 -52.55142,41.01294 -44.44021,19.19269 -109.67249,32.10205 -185.07234,32.10205 -75.39984,0 -140.63214,-12.90936 -185.07235,-32.10205 -49.466865,-21.36329 -52.551404,-40.09901 -52.551404,-41.01294 0,-12.10968 6.397563,-29.93146 50.723534,-47.18203 43.64051,-16.90784 108.98705,-25.93297 186.90022,-25.93297 20.5636,0 40.09901,0.5712 58.72048,1.82787 z"
     id="path1"
     style="stroke-width:1.14242" />
</svg>
