<?xml version="1.0" encoding="UTF-8" standalone="no"?>
<svg
   viewBox="0 0 640 512"
   fill="#d1d1d1"
   version="1.1"
   id="svg1"
   sodipodi:docname="music-solid.svg"
   inkscape:version="1.3 (0e150ed6c4, 2023-07-21)"
   xmlns:inkscape="http://www.inkscape.org/namespaces/inkscape"
   xmlns:sodipodi="http://sodipodi.sourceforge.net/DTD/sodipodi-0.dtd"
   xmlns="http://www.w3.org/2000/svg"
   xmlns:svg="http://www.w3.org/2000/svg">
  <defs
     id="defs1" />
  <sodipodi:namedview
     id="namedview1"
     pagecolor="#ffffff"
     bordercolor="#000000"
     borderopacity="0.25"
     inkscape:showpageshadow="2"
     inkscape:pageopacity="0.0"
     inkscape:pagecheckerboard="0"
     inkscape:deskcolor="#d1d1d1"
     inkscape:zoom="2.2910156"
     inkscape:cx="319.94544"
     inkscape:cy="256"
     inkscape:window-width="2560"
     inkscape:window-height="1369"
     inkscape:window-x="1912"
     inkscape:window-y="-8"
     inkscape:window-maximized="1"
     inkscape:current-layer="svg1" />
  <!--! Font Awesome Pro 6.4.2 by @fontawesome - https://fontawesome.com License - https://fontawesome.com/license (Commercial License) Copyright 2023 Fonticons, Inc. -->
  <path
     d="m 558.02583,6.3 c 8.1,6 12.9,15.6 12.9,25.7 v 72 264 c 0,44.2 -43,80 -96,80 -53,0 -96,-35.8 -96,-80 0,-44.2 43,-80 96,-80 11.2,0 22,1.6 32,4.6 V 147 l -256,76.8 V 432 c 0,44.2 -43,80 -96,80 -53,0 -95.999999,-35.8 -95.999999,-80 0,-44.2 42.999999,-80 95.999999,-80 11.2,0 22,1.6 32,4.6 V 200 128 c 0,-14.1 9.3,-26.6 22.8,-30.7 l 320,-96 c 9.7,-2.9 20.2,-1.1 28.3,5 z"
     id="path1" />
</svg>
