<?xml version="1.0" encoding="UTF-8" standalone="no"?>
<svg
   viewBox="0 0 640 512"
   fill="#d1d1d1"
   version="1.1"
   id="svg1"
   sodipodi:docname="volume-medium-solid.svg"
   inkscape:version="1.3 (0e150ed6c4, 2023-07-21)"
   xmlns:inkscape="http://www.inkscape.org/namespaces/inkscape"
   xmlns:sodipodi="http://sodipodi.sourceforge.net/DTD/sodipodi-0.dtd"
   xmlns="http://www.w3.org/2000/svg"
   xmlns:svg="http://www.w3.org/2000/svg">
  <defs
     id="defs1" />
  <sodipodi:namedview
     id="namedview1"
     pagecolor="#ffffff"
     bordercolor="#000000"
     borderopacity="0.25"
     inkscape:showpageshadow="2"
     inkscape:pageopacity="0.0"
     inkscape:pagecheckerboard="0"
     inkscape:deskcolor="#d1d1d1"
     inkscape:zoom="2.2910156"
     inkscape:cx="320.16368"
     inkscape:cy="256"
     inkscape:window-width="2560"
     inkscape:window-height="1369"
     inkscape:window-x="1912"
     inkscape:window-y="-8"
     inkscape:window-maximized="1"
     inkscape:current-layer="svg1" />
  <!--! Font Awesome Pro 6.4.2 by @fontawesome - https://fontawesome.com License - https://fontawesome.com/license (Commercial License) Copyright 2023 Fonticons, Inc. -->
  <path
     d="m 473.1,107 c 43.2,35.2 70.9,88.9 70.9,149 0,60.1 -27.7,113.8 -70.9,149 -10.3,8.4 -25.4,6.8 -33.8,-3.5 -8.4,-10.3 -6.8,-25.4 3.5,-33.8 32.5,-26.4 53.2,-66.6 53.2,-111.7 0,-45.1 -20.7,-85.3 -53.2,-111.8 -10.3,-8.4 -11.8,-23.5 -3.5,-33.8 8.3,-10.3 23.5,-11.8 33.8,-3.5 z m -60.5,74.5 c 21.5,17.6 35.4,44.4 35.4,74.5 0,30.1 -13.9,56.9 -35.4,74.5 -10.3,8.4 -25.4,6.8 -33.8,-3.5 -8.4,-10.3 -6.8,-25.4 3.5,-33.8 10.8,-8.8 17.7,-22.2 17.7,-37.2 0,-15 -6.9,-28.4 -17.7,-37.3 -10.3,-8.4 -11.8,-23.5 -3.5,-33.8 8.3,-10.3 23.5,-11.8 33.8,-3.5 z M 301.1,34.8 C 312.6,40 320,51.4 320,64 v 384 c 0,12.6 -7.4,24 -18.9,29.2 -11.5,5.2 -25,3.1 -34.4,-5.3 L 131.8,352 H 64 C 28.7,352 0,323.3 0,288 v -64 c 0,-35.3 28.7,-64 64,-64 h 67.8 L 266.7,40.1 c 9.4,-8.4 22.9,-10.4 34.4,-5.3 z"
     id="path1"
     inkscape:label="path1"
     sodipodi:nodetypes="cscscscscccscscscscccsssccssssccc" />
</svg>
